<?xml version="1.0" encoding="utf-8"?>
<!-- Generator: Adobe Illustrator 16.0.0, SVG Export Plug-In . SVG Version: 6.00 Build 0)  -->
<!DOCTYPE svg PUBLIC "-//W3C//DTD SVG 1.1//EN" "http://www.w3.org/Graphics/SVG/1.1/DTD/svg11.dtd">
<svg version="1.1" id="Layer_4" xmlns="http://www.w3.org/2000/svg" xmlns:xlink="http://www.w3.org/1999/xlink" x="0px" y="0px"
	 width="612px" height="792px" viewBox="0 0 612 792" enable-background="new 0 0 612 792" xml:space="preserve">
<title>logo</title>
<path d="M70.531,405.993l11.895,67.733H8.612c-4.762-0.008-8.617-3.874-8.612-8.636v-46.629L70.531,405.993z"/>
<path d="M146.418,318.273c4.762,0.008,8.617,3.874,8.612,8.636v138.181c0.005,4.762-3.85,8.628-8.612,8.636H99.926L72.59,318.273
	H146.418z"/>
<path d="M55.095,318.273l12.419,70.715L0,400.923V326.91c-0.005-4.762,3.85-8.628,8.612-8.636H55.095z"/>
<path d="M303.183,446.75h-20.094l-45.036-68.588v68.588h-20.089V345.862h20.094l45.036,69.165v-69.165h20.089V446.75z"/>
<path d="M396.955,367.583v79.171h-20.099v-16.028c-1.97,5.191-5.598,9.588-10.322,12.507c-4.992,3.055-10.755,4.617-16.606,4.503
	c-8.241,0.366-16.223-2.93-21.804-9.006c-5.781-7.062-8.684-16.046-8.126-25.155v-45.992h19.953v43.714
	c-0.328,5.326,1.411,10.574,4.857,14.648c3.411,3.554,8.194,5.457,13.114,5.217c5.19,0.247,10.231-1.778,13.809-5.547
	c3.688-4.495,5.52-10.228,5.125-16.028v-42.004H396.955z"/>
<path d="M480.318,371.44c5.442,3.377,9.776,8.273,12.468,14.085c3.128,6.779,4.663,14.185,4.488,21.648
	c0.175,7.466-1.36,14.872-4.488,21.653c-2.688,5.813-7.023,10.711-12.468,14.086c-5.418,3.269-11.645,4.951-17.972,4.856
	c-6.034,0.179-11.979-1.49-17.039-4.784c-4.62-3.091-8.139-7.571-10.045-12.794v16.578h-20.074V341.005h20.099v43.01
	c1.898-5.207,5.42-9.665,10.045-12.716c5.075-3.251,11.014-4.895,17.039-4.716C468.689,366.498,474.905,368.18,480.318,371.44z
	 M441.058,390.383c-4.107,4.593-6.232,10.623-5.911,16.776c-0.308,6.115,1.819,12.104,5.916,16.655
	c8.338,8.235,21.729,8.298,30.144,0.141c4.009-4.646,6.051-10.67,5.692-16.796c0.348-6.145-1.692-12.187-5.692-16.864
	c-3.912-4.14-9.43-6.378-15.12-6.135c-5.666-0.168-11.133,2.095-15.023,6.217L441.058,390.383z"/>
<path d="M512.677,336.93c5.287-4.103,12.683-4.103,17.971,0c2.255,2.008,3.5,4.915,3.4,7.932c0.075,2.967-1.17,5.814-3.4,7.771
	c-5.288,4.103-12.684,4.103-17.971,0c-2.23-1.958-3.477-4.805-3.4-7.771C509.176,341.844,510.422,338.938,512.677,336.93z
	 M531.619,367.583v79.171h-20.099v-79.171H531.619z"/>
<path d="M600.168,373.868c5.848,4.948,9.697,11.853,10.831,19.429h-18.812c-0.611-3.545-2.42-6.773-5.124-9.146
	c-2.931-2.379-6.633-3.6-10.404-3.429c-2.868-0.178-5.705,0.685-7.989,2.429c-1.908,1.637-2.956,4.061-2.842,6.572
	c-0.079,2.014,0.757,3.957,2.273,5.285c1.671,1.422,3.612,2.492,5.707,3.147c2.267,0.761,5.545,1.666,9.836,2.715
	c4.965,1.038,9.846,2.448,14.6,4.216c3.772,1.484,7.113,3.891,9.715,6.999c2.861,3.687,4.296,8.281,4.041,12.939
	c0.163,6.433-2.78,12.55-7.907,16.437c-6.173,4.472-13.692,6.69-21.304,6.285c-8.754,0.441-17.412-1.993-24.654-6.931
	c-6.281-4.8-10.346-11.941-11.264-19.793h19.238c0.335,3.663,2.201,7.016,5.14,9.229c3.364,2.374,7.427,3.558,11.54,3.361
	c2.836,0.194,5.64-0.7,7.84-2.502c1.801-1.671,2.786-4.043,2.7-6.498c0.075-2.112-0.78-4.151-2.341-5.576
	c-1.689-1.493-3.676-2.612-5.829-3.283c-2.331-0.762-5.633-1.666-9.903-2.716c-4.86-1.035-9.646-2.396-14.324-4.07
	c-3.65-1.375-6.888-3.662-9.403-6.645c-2.792-3.575-4.186-8.046-3.919-12.575c-0.172-6.498,2.734-12.695,7.839-16.718
	c6.244-4.609,13.905-6.885,21.653-6.431C585.412,366.184,593.597,368.764,600.168,373.868z"/>
</svg>
